<?xml version="1.0" encoding="UTF-8"?>
<svg version="1.1" xmlns="http://www.w3.org/2000/svg" width="500" height="500">
<path d="M0 0 C165 0 330 0 500 0 C500 165 500 330 500 500 C335 500 170 500 0 500 C0 335 0 170 0 0 Z " fill="#FEFEFE" transform="translate(0,0)"/>
<path d="M0 0 C7.05243757 5.82270581 14.01825903 13.8599058 15.375 23.1875 C15.436875 24.156875 15.49875 25.12625 15.5625 26.125 C16.30113281 26.07859375 17.03976562 26.0321875 17.80078125 25.984375 C27.70317159 25.63206632 35.53796628 27.33440437 43.375 33.625 C50.19869778 40.27687805 53.86526917 47.68702053 54.1875 57.25 C53.69411814 66.99965448 50.62209711 74.0470789 43.9140625 81.14453125 C36.35081778 87.51424068 27.64290143 89.25111277 18.03125 89.265625 C16.56639058 89.28394298 15.10154636 89.30351235 13.63671875 89.32421875 C11.34560117 89.35322024 9.05547356 89.37500149 6.76416016 89.37548828 C4.53981362 89.37882886 2.31770618 89.41338683 0.09375 89.453125 C-0.58659302 89.4460553 -1.26693604 89.4389856 -1.96789551 89.43170166 C-5.91558067 89.53230085 -7.35772423 90.0567369 -10.40820312 92.66699219 C-11.07787109 93.47813477 -11.74753906 94.28927734 -12.4375 95.125 C-8.09056424 100.74503539 -3.92065602 105.06903309 3.31396484 106.04394531 C8.7929309 106.45116707 14.26139456 106.3594419 19.75 106.25 C21.67513099 106.24805493 23.60027209 106.25062129 25.52539062 106.2578125 C30.20616419 106.26558133 34.88257221 106.21222537 39.5625 106.125 C39.84351563 105.35542969 40.12453125 104.58585937 40.4140625 103.79296875 C42.13050802 99.80544395 44.89334405 97.33369914 48.375 94.8125 C52.70667799 93.45111549 56.54923097 93.27519622 60.71875 95.03515625 C65.20295412 97.63699856 68.31338918 100.34563951 70.5625 105.125 C71.37225839 111.4006275 70.22428038 115.93652121 66.5625 121.125 C62.92670505 124.67211702 59.99620215 125.41078227 55.0625 125.625 C50.16292246 125.43860303 47.28708542 124.47712688 43.5625 121.125 C41.44548077 118.71597812 40.58539206 117.19367617 39.5625 114.125 C38.32798096 114.15754883 37.09346191 114.19009766 35.8215332 114.22363281 C31.18230186 114.32963327 26.54537384 114.35467314 21.9050293 114.35693359 C19.90803852 114.36884056 17.91104571 114.40187147 15.91479492 114.45751953 C-2.44714441 114.94496395 -2.44714441 114.94496395 -9.51289368 108.793396 C-11.97163514 106.34933696 -14.20512028 103.77726533 -16.4375 101.125 C-17.0975 100.795 -17.7575 100.465 -18.4375 100.125 C-18.4375 99.465 -18.4375 98.805 -18.4375 98.125 C-20.4175 98.455 -22.3975 98.785 -24.4375 99.125 C-24.4375 108.695 -24.4375 118.265 -24.4375 128.125 C-21.1375 129.115 -17.8375 130.105 -14.4375 131.125 C-12.38823806 131.83253963 -10.34456527 132.55698855 -8.3125 133.3125 C-7.38179688 133.65667969 -6.45109375 134.00085938 -5.4921875 134.35546875 C-4.81414062 134.60941406 -4.13609375 134.86335937 -3.4375 135.125 C-2.88320313 134.63128906 -2.32890625 134.13757813 -1.7578125 133.62890625 C-1.03335938 132.98824219 -0.30890625 132.34757813 0.4375 131.6875 C1.51644531 130.73037109 1.51644531 130.73037109 2.6171875 129.75390625 C5.85941717 127.03902719 8.24981679 126.8340442 12.4765625 126.91796875 C17.28081261 127.39479507 20.57709354 129.85095913 23.9375 133.125 C27.11009496 137.05734796 27.31331727 140.60007709 27.015625 145.5390625 C26.13284935 150.57697183 23.64104385 153.12537399 20 156.5 C15.12498558 158.80455227 10.8643646 158.89143944 5.5625 158.125 C0.09685465 155.64061575 -1.95115931 152.37394145 -4.4375 147.125 C-4.45167969 146.30644531 -4.46585937 145.48789062 -4.48046875 144.64453125 C-5.17619917 142.04856612 -5.17619917 142.04856612 -7.1496582 141.05395508 C-9.5467893 139.99437843 -11.9607077 139.10663493 -14.4375 138.25 C-15.26378906 137.9303125 -16.09007812 137.610625 -16.94140625 137.28125 C-25.85778744 134.07191092 -33.14591548 135.57885167 -41.875 138.6875 C-42.93364258 139.00944336 -42.93364258 139.00944336 -44.01367188 139.33789062 C-46.37081132 140.09946715 -46.37081132 140.09946715 -49.4375 142.125 C-50.33016381 144.16415302 -50.72266556 146.02654041 -51.08374023 148.21948242 C-51.80060419 152.0808511 -54.60879794 154.5847974 -57.4375 157.125 C-61.37580655 159.44759104 -64.9207925 159.5922456 -69.4375 159.125 C-74.49429248 157.01280067 -78.43572783 154.44489345 -80.625 149.375 C-81.91040282 144.23338873 -82.27596742 140.70877179 -79.75 135.9375 C-76.76674747 132.30921989 -73.36835703 128.48256456 -68.484375 127.88671875 C-62.90218198 127.70634176 -59.88767108 128.43461422 -55.4375 132.125 C-54.7775 132.785 -54.1175 133.445 -53.4375 134.125 C-47.28401552 133.9882559 -41.96404442 131.49694207 -36.328125 129.18359375 C-33.4375 128.125 -33.4375 128.125 -30.4375 128.125 C-30.7675 118.555 -31.0975 108.985 -31.4375 99.125 C-36.46003187 98.91652689 -36.46003187 98.91652689 -39.6640625 101.6796875 C-40.2209375 102.21207031 -40.7778125 102.74445313 -41.3515625 103.29296875 C-42.19847656 104.13794922 -42.19847656 104.13794922 -43.0625 105 C-44.19895372 106.10317918 -45.33692142 107.20480134 -46.4765625 108.3046875 C-46.97365723 108.79694824 -47.47075195 109.28920898 -47.98291016 109.79638672 C-50.93177635 112.48986269 -52.82973521 113.37489891 -56.7253418 113.35205078 C-57.58600754 113.35189972 -58.44667328 113.35174866 -59.3334198 113.35159302 C-60.25850845 113.34127045 -61.18359711 113.33094788 -62.13671875 113.3203125 C-63.08690384 113.3174826 -64.03708893 113.31465271 -65.0160675 113.31173706 C-68.05250615 113.30053715 -71.08865042 113.27543288 -74.125 113.25 C-76.18293845 113.23996996 -78.24088152 113.23084415 -80.29882812 113.22265625 C-85.3451656 113.20059842 -90.39128288 113.16606982 -95.4375 113.125 C-95.55609375 113.89457031 -95.6746875 114.66414063 -95.796875 115.45703125 C-96.69398869 119.19318154 -98.53214683 120.68186211 -101.4375 123.125 C-105.77175837 125.65331738 -110.54574268 125.83244991 -115.4375 125.125 C-120.55512818 122.47141502 -123.61455942 119.59382174 -125.4375 114.125 C-125.80576224 108.50900084 -125.65306007 104.94834011 -122.4375 100.125 C-118.77596331 96.5122838 -115.90716112 94.22297741 -110.6875 93.875 C-105.91815056 93.96124502 -102.4594895 95.17236634 -98.95703125 98.5546875 C-95.4375 102.51785714 -95.4375 102.51785714 -95.4375 106.125 C-89.61971991 106.20495765 -83.80578629 106.2252541 -77.98754883 106.19213867 C-76.01192236 106.18907118 -74.03620152 106.20183009 -72.06079102 106.23120117 C-60.61609 106.75401723 -60.61609 106.75401723 -50.15185547 103.05029297 C-47.99768245 100.84777946 -46.24488116 98.60775609 -44.4375 96.125 C-43.7775 96.125 -43.1175 96.125 -42.4375 96.125 C-44.00325424 93.32584501 -44.86433157 91.93779716 -47.4375 90.125 C-51.92702179 89.29251616 -56.38343376 89.42394044 -60.9375 89.5 C-74.1867826 89.64185527 -85.96417998 88.43480976 -96.28125 79.390625 C-103.54085577 71.76277836 -107.41365881 62.16440956 -107.875 51.6875 C-107.54014388 41.79529223 -103.51428538 33.0199964 -96.4375 26.125 C-89.56357128 20.96708792 -83.36243239 16.94581338 -74.61303711 17.05224609 C-67.99901606 17.20710953 -67.99901606 17.20710953 -62.3046875 14.30859375 C-60.85821311 11.9728933 -59.66069619 9.58334545 -58.4375 7.125 C-52.97529665 0.25230364 -44.62509828 -5.94253164 -35.87890625 -7.62109375 C-22.57912713 -9.00427078 -11.31308341 -7.95551423 0 0 Z " fill="#2D292A" transform="translate(277.4375,147.875)"/>
<path d="M0 0 C10.05770872 7.20181612 14.09990665 16.60420033 17.25 28.25 C18.384375 28.26417969 19.51875 28.27835938 20.6875 28.29296875 C36.49591087 28.70141405 36.49591087 28.70141405 42.25 34.25 C42.89453125 34.86488281 43.5390625 35.47976562 44.203125 36.11328125 C49.45084103 41.60631733 51.23945763 46.5543498 51.625 54.125 C51.41499852 62.26564547 48.00691737 68.01890151 42.421875 73.7421875 C34.47023308 79.262572 26.0121378 78.61043094 16.75 78.4375 C15.34116014 78.42242613 13.93230468 78.4087425 12.5234375 78.39648438 C9.09855604 78.36129724 5.67448237 78.31206079 2.25 78.25 C2.27320313 77.30318359 2.29640625 76.35636719 2.3203125 75.38085938 C2.33835937 74.13111328 2.35640625 72.88136719 2.375 71.59375 C2.39820313 70.35818359 2.42140625 69.12261719 2.4453125 67.84960938 C2.10396751 61.55862128 -0.17865675 56.78438349 -4.65234375 52.375 C-11.34082524 47.03448503 -17.956919 45.65224358 -26.42578125 45.81640625 C-32.86369276 46.65613384 -37.53330898 49.58997077 -41.6640625 54.546875 C-45.64513468 60.32037304 -46.87736307 64.36742576 -46.8125 71.4375 C-46.80347656 72.70980469 -46.79445312 73.98210937 -46.78515625 75.29296875 C-46.77355469 76.26878906 -46.76195312 77.24460937 -46.75 78.25 C-50.70807715 78.36761144 -54.66569621 78.43771882 -58.625 78.5 C-59.73359375 78.53351563 -60.8421875 78.56703125 -61.984375 78.6015625 C-72.39973418 78.72409614 -80.39137099 76.38613634 -88.05859375 69.18359375 C-94.12994591 62.24290249 -95.13562161 54.57255983 -95.015625 45.6328125 C-94.3267039 36.85919969 -90.57700894 31.03338315 -84.140625 25.16796875 C-75.10520631 17.91896454 -65.83622651 18.81946693 -54.75 19.25 C-54.481875 18.6209375 -54.21375 17.991875 -53.9375 17.34375 C-48.68178711 5.86416658 -41.35663771 0.04188328 -29.75 -4.75 C-19.64248602 -7.94490384 -8.77712221 -5.48937075 0 0 Z " fill="#FDFDFD" transform="translate(271.75,151.75)"/>
<path d="M0 0 C5.96632452 2.17045737 10.05110956 6.46121447 13 12 C13.8125 14.5 13.8125 14.5 14 17 C14.1546875 18.6396875 14.1546875 18.6396875 14.3125 20.3125 C13.83512083 25.94557421 12.1755277 29.79165184 8.1875 33.83984375 C2.8051806 38.04478078 -2.13940409 38.90650732 -8.89453125 38.59765625 C-13.58354262 37.69524274 -16.88236825 35.59928834 -20 32 C-20.33 31.01 -20.66 30.02 -21 29 C-21.99 28.67 -22.98 28.34 -24 28 C-26.46257286 23.07485428 -25.36652977 16.37448663 -24 11.25 C-18.0639178 1.60386643 -10.97993775 -1.19856284 0 0 Z " fill="#FCFCFC" transform="translate(256,202)"/>
<path d="M0 0 C3.96 0 7.92 0 12 0 C12.20496094 0.85464844 12.40992188 1.70929688 12.62109375 2.58984375 C12.89050781 3.69457031 13.15992188 4.79929687 13.4375 5.9375 C13.83775391 7.59072266 13.83775391 7.59072266 14.24609375 9.27734375 C14.72995725 11.89421254 14.72995725 11.89421254 16 13 C16.99 8.71 17.98 4.42 19 0 C22.96 0 26.92 0 31 0 C31 8.58 31 17.16 31 26 C28.36 26 25.72 26 23 26 C22.505 19.565 22.505 19.565 22 13 C21.01 17.29 20.02 21.58 19 26 C16.69 26 14.38 26 12 26 C11.01 23.03 10.02 20.06 9 17 C8.67 19.97 8.34 22.94 8 26 C5.36 26 2.72 26 0 26 C0 17.42 0 8.84 0 0 Z " fill="#0B0B0B" transform="translate(234,316)"/>
<path d="M0 0 C3.91075925 1.98968453 5.57689098 3.36533646 8 7 C8.57632878 11.83517391 8.61319871 16.45086641 6.8125 21 C3.98063106 24.1248209 1.28850285 25.79189725 -2.90234375 26.46875 C-12.10565081 26.56350734 -12.10565081 26.56350734 -15.6875 23.625 C-19.62295457 19.15772725 -19.33387072 15.7367212 -19.28515625 9.92578125 C-18.91699154 6.14831043 -17.90835123 4.42362603 -15 2 C-10.28116904 -0.85989755 -5.35650733 -0.64340103 0 0 Z " fill="#070707" transform="translate(118,316)"/>
<path d="M0 0 C2.88723696 2.59851326 4.25935087 4.53107766 4.80078125 8.3984375 C4.82718031 13.41425875 4.44174207 16.98954596 1.5 21.25 C-3.85503659 25.14966079 -9.08951595 25.20290979 -15.5 24.25 C-18.7262505 22.61261723 -20.85978168 20.53043664 -22.5 17.25 C-23.69145143 5.88014919 -23.69145143 5.88014919 -20.25 1.5625 C-14.64930455 -3.14717572 -6.40841681 -3.2042084 0 0 Z " fill="#060606" transform="translate(426.5,317.75)"/>
<path d="M0 0 C17.65251989 -0.58355438 17.65251989 -0.58355438 23 4 C25.59183357 8.22831551 25.52782121 12.17420605 25 17 C23.71656187 20.8503144 22.83289953 22.46940286 19.40625 24.65234375 C15.26668211 26.2901315 12.01007703 26.34090982 7.625 26.1875 C3.850625 26.0946875 3.850625 26.0946875 0 26 C0 17.42 0 8.84 0 0 Z " fill="#0F0F0F" transform="translate(375,316)"/>
<path d="M0 0 C8 0 8 0 10.49609375 2.15234375 C11.13675781 3.07144531 11.77742187 3.99054688 12.4375 4.9375 C13.42556641 6.31228516 13.42556641 6.31228516 14.43359375 7.71484375 C14.95050781 8.46894531 15.46742188 9.22304688 16 10 C16.33 10.33 16.66 10.66 17 11 C17.33 7.37 17.66 3.74 18 0 C20.64 0 23.28 0 26 0 C26 8.58 26 17.16 26 26 C18 26 18 26 15.25 23.8125 C14.13625 22.4203125 14.13625 22.4203125 13 21 C11.8553125 19.6078125 11.8553125 19.6078125 10.6875 18.1875 C9.8521875 17.1046875 9.8521875 17.1046875 9 16 C8.67 19.3 8.34 22.6 8 26 C5.36 26 2.72 26 0 26 C0 17.42 0 8.84 0 0 Z " fill="#0C0C0C" transform="translate(191,316)"/>
<path d="M0 0 C8 0 8 0 10.75 2.40625 C11.86375 3.93765625 11.86375 3.93765625 13 5.5 C13.763125 6.5209375 14.52625 7.541875 15.3125 8.59375 C15.869375 9.3878125 16.42625 10.181875 17 11 C17.33 7.37 17.66 3.74 18 0 C20.64 0 23.28 0 26 0 C26 8.58 26 17.16 26 26 C18 26 18 26 15.25 23.59375 C14.5075 22.5728125 13.765 21.551875 13 20.5 C12.236875 19.4790625 11.47375 18.458125 10.6875 17.40625 C10.130625 16.6121875 9.57375 15.818125 9 15 C8.67 18.63 8.34 22.26 8 26 C5.36 26 2.72 26 0 26 C0 17.42 0 8.84 0 0 Z " fill="#0C0C0C" transform="translate(284,316)"/>
<path d="M0 0 C3.91075925 1.98968453 5.57689098 3.36533646 8 7 C8 7.99 8 8.98 8 10 C0.41941748 10.37281553 0.41941748 10.37281553 -1.6875 8.5 C-2.120625 8.005 -2.55375 7.51 -3 7 C-5.54230847 6.58320703 -5.54230847 6.58320703 -8 7 C-10.24324836 8.81193006 -10.24324836 8.81193006 -10.1953125 11.3828125 C-10.17210937 12.28773438 -10.14890625 13.19265625 -10.125 14.125 C-10.09792969 15.49011719 -10.09792969 15.49011719 -10.0703125 16.8828125 C-10.04710937 17.58148438 -10.02390625 18.28015625 -10 19 C-5.99745544 19.09181134 -5.99745544 19.09181134 -2 19 C-1.67 18.67 -1.34 18.34 -1 18 C-2.65 17.67 -4.3 17.34 -6 17 C-6 15.35 -6 13.7 -6 12 C-1.38 12 3.24 12 8 12 C8 16.62 8 21.24 8 26 C6.35 26 4.7 26 3 26 C3 25.34 3 24.68 3 24 C2.46246094 24.32097656 1.92492187 24.64195312 1.37109375 24.97265625 C-3.18481258 26.94663214 -8.14735151 26.66293012 -13 26 C-16.48242391 23.47353559 -17.65226822 22.04319535 -19 18 C-19.48420096 12.87223242 -19.84808044 8.48414077 -17.25 3.9375 C-11.95703835 -0.62032809 -6.78904054 -0.81547086 0 0 Z " fill="#0A0A0A" transform="translate(149,316)"/>
<path d="M0 0 C2.97 0 5.94 0 9 0 C9.33 6.27 9.66 12.54 10 19 C11.98 19 13.96 19 16 19 C16.33 12.73 16.66 6.46 17 0 C19.97 0 22.94 0 26 0 C26.08138426 2.87557703 26.14067851 5.74882262 26.1875 8.625 C26.21263672 9.43324219 26.23777344 10.24148438 26.26367188 11.07421875 C26.32520879 16.12024617 25.94606146 19.69676417 23 24 C19.88215685 26.32664855 16.87708504 26.29806904 13.0625 26.3125 C12.04285156 26.32925781 11.02320313 26.34601563 9.97265625 26.36328125 C6.5137961 25.94058218 4.71929776 25.170709 2 23 C-0.72905592 18.59592472 -0.22776596 13.69536423 -0.125 8.6875 C-0.11597656 7.85154297 -0.10695313 7.01558594 -0.09765625 6.15429688 C-0.07420989 4.10274031 -0.03834266 2.05133223 0 0 Z " fill="#131313" transform="translate(344,316)"/>
<path d="M0 0 C3.3 0 6.6 0 10 0 C11.13118904 2.83099717 12.25504568 5.66456009 13.375 8.5 C13.69210937 9.29148437 14.00921875 10.08296875 14.3359375 10.8984375 C16.29740815 15.88384206 17.81349262 20.77457354 19 26 C16.03 26 13.06 26 10 26 C10 24.68 10 23.36 10 22 C6.7 22 3.4 22 0 22 C-0.33 23.32 -0.66 24.64 -1 26 C-3.64 26 -6.28 26 -9 26 C-6.56696874 17.12157015 -3.29163506 8.58594775 0 0 Z " fill="#090909" transform="translate(322,316)"/>
<path d="M0 0 C1.37478516 0.01740234 1.37478516 0.01740234 2.77734375 0.03515625 C3.69644531 0.04417969 4.61554688 0.05320312 5.5625 0.0625 C6.27277344 0.07410156 6.98304688 0.08570313 7.71484375 0.09765625 C9.22015465 4.0539905 10.71818968 8.01303992 12.21484375 11.97265625 C12.64410156 13.10058594 13.07335937 14.22851562 13.515625 15.390625 C14.12470703 17.00517578 14.12470703 17.00517578 14.74609375 18.65234375 C15.12314453 19.64733887 15.50019531 20.64233398 15.88867188 21.66748047 C16.71484375 24.09765625 16.71484375 24.09765625 16.71484375 26.09765625 C13.74484375 26.09765625 10.77484375 26.09765625 7.71484375 26.09765625 C7.38484375 25.10765625 7.05484375 24.11765625 6.71484375 23.09765625 C3.74484375 22.76765625 0.77484375 22.43765625 -2.28515625 22.09765625 C-2.61515625 23.41765625 -2.94515625 24.73765625 -3.28515625 26.09765625 C-5.92515625 26.09765625 -8.56515625 26.09765625 -11.28515625 26.09765625 C-10.62462141 20.49228419 -8.76237071 15.52993598 -6.78515625 10.28515625 C-6.30369141 8.97901367 -6.30369141 8.97901367 -5.8125 7.64648438 C-3.01164291 0.12870269 -3.01164291 0.12870269 0 0 Z " fill="#090909" transform="translate(171.28515625,315.90234375)"/>
<path d="M0 0 C2.64 0 5.28 0 8 0 C8 6.27 8 12.54 8 19 C12.29 19 16.58 19 21 19 C21 21.31 21 23.62 21 26 C14.07 26 7.14 26 0 26 C0 17.42 0 8.84 0 0 Z " fill="#070707" transform="translate(75,316)"/>
<path d="M0 0 C3.24811347 2.40077952 4.68969068 4.14208601 6.0625 7.9375 C5.97939888 12.00945507 4.53529331 13.88521107 2 17 C-1.10048928 18.55024464 -3.57894218 18.28992015 -7 18 C-9.95473023 16.45840162 -11.52908229 15.31912036 -12.66796875 12.12890625 C-13.41605771 8.21069776 -13.33289313 6.53951646 -11.1875 3.0625 C-7.5291086 -0.38684047 -4.99330376 -0.5077936 0 0 Z " fill="#F8F8F8" transform="translate(215,282)"/>
<path d="M0 0 C3.35120088 0.76347923 4.81852174 1.72646535 6.9375 4.44140625 C7.65460709 7.59197509 7.62779912 10.2873566 6.9375 13.44140625 C4.875 16.50390625 4.875 16.50390625 1.9375 18.44140625 C-2.15749984 19.09953122 -4.26129854 18.8594244 -7.9375 16.94140625 C-10.39346314 14.05203785 -11.08533413 12.2196358 -11.31640625 8.48046875 C-10.54012908 2.24636598 -5.98059848 -0.53236388 0 0 Z " fill="#F9F9F9" transform="translate(334.0625,248.55859375)"/>
<path d="M0 0 C3.35120088 0.76347923 4.81852174 1.72646535 6.9375 4.44140625 C7.65460709 7.59197509 7.62779912 10.2873566 6.9375 13.44140625 C4.875 16.50390625 4.875 16.50390625 1.9375 18.44140625 C-2.15749984 19.09953122 -4.26129854 18.8594244 -7.9375 16.94140625 C-10.39346314 14.05203785 -11.08533413 12.2196358 -11.31640625 8.48046875 C-10.54012908 2.24636598 -5.98059848 -0.53236388 0 0 Z " fill="#F9F9F9" transform="translate(169.0625,248.55859375)"/>
<path d="M0 0 C3.53494505 0.9336246 4.94397547 2.52143196 6.9375 5.51171875 C7.63574523 8.35048624 7.64128755 10.67368117 6.9375 13.51171875 C4.875 16.51171875 4.875 16.51171875 1.9375 18.51171875 C-2.15749984 19.16984372 -4.26129854 18.9297369 -7.9375 17.01171875 C-10.39346314 14.12235035 -11.08533413 12.2899483 -11.31640625 8.55078125 C-10.54454716 2.35215903 -5.97003323 -0.50880965 0 0 Z " fill="#FAFAFA" transform="translate(290.0625,281.48828125)"/>
<path d="M0 0 C2.64 0 5.28 0 8 0 C8 8.58 8 17.16 8 26 C5.36 26 2.72 26 0 26 C0 17.42 0 8.84 0 0 Z " fill="#080808" transform="translate(270,316)"/>
<path d="M0 0 C3.30742165 1.222308 4.33959766 1.90639519 5.875 5.0625 C6.44054202 8.85971069 6.14789799 10.57968047 4.25 13.9375 C1.875 16.0625 1.875 16.0625 -1.1875 16.5625 C-4.34785617 16.02456703 -5.2694064 15.60173335 -7.125 13.0625 C-8.56930855 10.17388291 -8.50188506 8.26602299 -8.125 5.0625 C-5.58554286 1.55207396 -4.41454364 0.08829087 0 0 Z " fill="#F4F4F4" transform="translate(121.125,355.9375)"/>
<path d="M0 0 C1.8125 1 1.8125 1 3 3 C3.59473663 7.46052469 3.53637054 10.19544419 1 14 C-2.5 14.375 -2.5 14.375 -6 14 C-8.53637054 10.19544419 -8.59473663 7.46052469 -8 3 C-5.99552859 -0.37595184 -3.7543224 -0.56314836 0 0 Z " fill="#F4F4F4" transform="translate(115,322)"/>
<path d="M0 0 C1.8125 1 1.8125 1 3 3 C3.54662881 6.59427161 3.68324933 9.78533453 1.875 13 C-0.88634715 14.47271848 -2.93002928 14.39191116 -6 14 C-8.53637054 10.19544419 -8.59473663 7.46052469 -8 3 C-5.99552859 -0.37595184 -3.7543224 -0.56314836 0 0 Z " fill="#F4F4F4" transform="translate(420,322)"/>
<path d="M0 0 C8 0 8 0 10.0625 1.125 C11.46771358 3.93542716 10.72549141 6.03208058 10 9 C9.34 9 8.68 9 8 9 C8.7425 10.175625 8.7425 10.175625 9.5 11.375 C11 14 11 14 11 16 C10.01 15.67 9.02 15.34 8 15 C7.690625 14.34 7.38125 13.68 7.0625 13 C6.17972859 10.79394438 6.17972859 10.79394438 3.875 10.25 C3.25625 10.1675 2.6375 10.085 2 10 C2 11.98 2 13.96 2 16 C1.34 16 0.68 16 0 16 C0 10.72 0 5.44 0 0 Z " fill="#353535" transform="translate(219,356)"/>
<path d="M0 0 C0.33 1.32 0.66 2.64 1 4 C3.64 4 6.28 4 9 4 C9 4.33 9 4.66 9 5 C4.38 5 -0.24 5 -5 5 C-5 6.65 -5 8.3 -5 10 C-3.02 10 -1.04 10 1 10 C0.01 11.485 0.01 11.485 -1 13 C-4.06997072 13.39191116 -6.11365285 13.47271848 -8.875 12 C-10.68755546 8.77767918 -10.53166222 5.60182435 -10 2 C-7.75198885 -2.36378636 -4.22539083 -0.87696791 0 0 Z " fill="#EAEAEA" transform="translate(148,323)"/>
<path d="M0 0 C6.0546875 -0.1953125 6.0546875 -0.1953125 8 0 C10 2 10 2 10.1875 4.375 C10 7 10 7 9.375 9.0625 C8.87811029 11.6297635 9.67320572 12.81469177 11 15 C10.01 15 9.02 15 8 15 C7.34 13.02 6.68 11.04 6 9 C4.68 9 3.36 9 2 9 C2 10.98 2 12.96 2 15 C1.34 15 0.68 15 0 15 C0 10.05 0 5.1 0 0 Z " fill="#282828" transform="translate(401,357)"/>
<path d="M0 0 C0.66 0 1.32 0 2 0 C1.71515154 1.73030291 1.42180062 3.45920714 1.125 5.1875 C0.96257812 6.15042969 0.80015625 7.11335938 0.6328125 8.10546875 C0.01960483 10.91032604 -0.85666343 13.37224747 -2 16 C-2.66 16 -3.32 16 -4 16 C-5.32 12.7 -6.64 9.4 -8 6 C-8.99 9.3 -9.98 12.6 -11 16 C-11.66 16 -12.32 16 -13 16 C-14.75734451 11.02638346 -16.32584613 6.2584002 -17 1 C-16.34 1 -15.68 1 -15 1 C-13.68373308 4.61973402 -13 7.09567131 -13 11 C-12.34 11 -11.68 11 -11 11 C-10.34 7.7 -9.68 4.4 -9 1 C-8.01 1 -7.02 1 -6 1 C-5.01 3.97 -4.02 6.94 -3 10 C-2.01 6.7 -1.02 3.4 0 0 Z " fill="#272727" transform="translate(189,356)"/>
<path d="M0 0 C1.98 0 3.96 0 6 0 C8 2 8 2 8.3125 5.9375 C8.23719217 8.53091352 8.15247863 9.74319388 6.8125 12 C5 13 5 13 0 13 C0 8.71 0 4.42 0 0 Z " fill="#F1F1F1" transform="translate(384,323)"/>
<path d="M0 0 C5.41382904 2.70691452 6.8033207 5.91437384 10 11 C10.33 7.37 10.66 3.74 11 0 C11.66 0 12.32 0 13 0 C13 5.28 13 10.56 13 16 C7.58617096 13.29308548 6.1966793 10.08562616 3 5 C2.67 8.63 2.34 12.26 2 16 C1.34 16 0.68 16 0 16 C0 10.72 0 5.44 0 0 Z " fill="#2F2F2F" transform="translate(287,356)"/>
<path d="M0 0 C0.99 0 1.98 0 3 0 C3.83739781 2.1234016 4.66980283 4.2487728 5.5 6.375 C5.9640625 7.55835938 6.428125 8.74171875 6.90625 9.9609375 C8 13 8 13 8 15 C7.34 15 6.68 15 6 15 C5.67 13.68 5.34 12.36 5 11 C2.69 11 0.38 11 -2 11 C-2.33 12.32 -2.66 13.64 -3 15 C-3.66 15 -4.32 15 -5 15 C-1.92482916 4.44191344 -1.92482916 4.44191344 0 0 Z " fill="#373737" transform="translate(203,357)"/>
<path d="M0 0 C0.66 0 1.32 0 2 0 C3.7265625 2.1875 3.7265625 2.1875 5.625 5 C6.25664062 5.928125 6.88828125 6.85625 7.5390625 7.8125 C8.26222656 8.8953125 8.26222656 8.8953125 9 10 C9.33 6.7 9.66 3.4 10 0 C10.66 0 11.32 0 12 0 C12 5.28 12 10.56 12 16 C8.33838422 14.77946141 7.83729526 13.63217696 5.8125 10.4375 C5.28269531 9.61121094 4.75289063 8.78492188 4.20703125 7.93359375 C3.80871094 7.29550781 3.41039062 6.65742188 3 6 C2.67 9.3 2.34 12.6 2 16 C1.34 16 0.68 16 0 16 C0 10.72 0 5.44 0 0 Z " fill="#313131" transform="translate(342,356)"/>
<path d="M0 0 C1.8125 1.375 1.8125 1.375 3 3 C3 3.66 3 4.32 3 5 C2.34 5 1.68 5 1 5 C1 4.34 1 3.68 1 3 C-0.99954746 2.95745644 -3.00041636 2.95919217 -5 3 C-6.19695276 3.97910585 -6.19695276 3.97910585 -6.1328125 5.8125 C-6.13023437 6.534375 -6.12765625 7.25625 -6.125 8 C-6.12757813 8.721875 -6.13015625 9.44375 -6.1328125 10.1875 C-6.19695276 12.02089415 -6.19695276 12.02089415 -5 13 C-2.54207971 13.33343551 -2.54207971 13.33343551 0 13 C0.66 12.01 1.32 11.02 2 10 C0.68 10 -0.64 10 -2 10 C-2 9.34 -2 8.68 -2 8 C-0.02 8 1.96 8 4 8 C3.25 13.75 3.25 13.75 1 16 C-5.22736521 16.56612411 -5.22736521 16.56612411 -7.6953125 14.7578125 C-9.76457596 11.96988269 -9.4721912 9.53069996 -9.3515625 6.1640625 C-9 4 -9 4 -7.3125 1.4375 C-4.54815528 -0.28087645 -3.19625513 -0.57368682 0 0 Z " fill="#393939" transform="translate(318,356)"/>
<path d="M0 0 C3.30742165 1.222308 4.33959766 1.90639519 5.875 5.0625 C6.44054202 8.85971069 6.14789799 10.57968047 4.25 13.9375 C1.875 16.0625 1.875 16.0625 -1.1875 16.5625 C-4.34785617 16.02456703 -5.2694064 15.60173335 -7.125 13.0625 C-8.56930855 10.17388291 -8.50188506 8.26602299 -8.125 5.0625 C-5.58554286 1.55207396 -4.41454364 0.08829087 0 0 Z M-4.875 3.1875 C-6.68275998 5.89913997 -6.45720081 7.87337222 -6.125 11.0625 C-5.135 12.5475 -5.135 12.5475 -4.125 14.0625 C-1.125 14.5625 -1.125 14.5625 1.875 14.0625 C4.18782587 10.59326119 4.29978586 9.14044425 3.875 5.0625 C2.74859395 3.10209519 2.74859395 3.10209519 0.875 2.0625 C-2.91095012 1.70199494 -2.91095012 1.70199494 -4.875 3.1875 Z " fill="#282828" transform="translate(121.125,355.9375)"/>
<path d="M0 0 C3.3 0 6.6 0 10 0 C10 0.66 10 1.32 10 2 C7.36 2 4.72 2 2 2 C2 3.65 2 5.3 2 7 C4.31 7 6.62 7 9 7 C9 7.66 9 8.32 9 9 C6.69 9 4.38 9 2 9 C2 10.65 2 12.3 2 14 C4.64 14 7.28 14 10 14 C10 14.66 10 15.32 10 16 C6.7 16 3.4 16 0 16 C0 10.72 0 5.44 0 0 Z " fill="#2E2E2E" transform="translate(382,356)"/>
<path d="M0 0 C2.97 0 5.94 0 9 0 C9 0.66 9 1.32 9 2 C6.69 2 4.38 2 2 2 C2 3.65 2 5.3 2 7 C4.31 7 6.62 7 9 7 C9 7.66 9 8.32 9 9 C6.69 9 4.38 9 2 9 C2 10.65 2 12.3 2 14 C4.31 14 6.62 14 9 14 C9 14.66 9 15.32 9 16 C6.03 16 3.06 16 0 16 C0 10.72 0 5.44 0 0 Z " fill="#292929" transform="translate(364,356)"/>
<path d="M0 0 C2.97 0 5.94 0 9 0 C9 0.66 9 1.32 9 2 C6.69 2 4.38 2 2 2 C2 3.65 2 5.3 2 7 C4.31 7 6.62 7 9 7 C9 7.66 9 8.32 9 9 C6.69 9 4.38 9 2 9 C2 10.65 2 12.3 2 14 C4.31 14 6.62 14 9 14 C9 14.66 9 15.32 9 16 C6.03 16 3.06 16 0 16 C0 10.72 0 5.44 0 0 Z " fill="#292929" transform="translate(269,356)"/>
<path d="M0 0 C0.78375 0.04125 1.5675 0.0825 2.375 0.125 C3.035 1.445 3.695 2.765 4.375 4.125 C2.065 3.795 -0.245 3.465 -2.625 3.125 C-2.625 4.115 -2.625 5.105 -2.625 6.125 C-1.490625 6.516875 -0.35625 6.90875 0.8125 7.3125 C4.375 9.125 4.375 9.125 5.4375 11.6875 C5.375 14.125 5.375 14.125 3.375 16.125 C-0.25 16.25 -0.25 16.25 -3.625 16.125 C-4.285 14.805 -4.945 13.485 -5.625 12.125 C-4.965 12.125 -4.305 12.125 -3.625 12.125 C-3.625 12.785 -3.625 13.445 -3.625 14.125 C-1.645 13.795 0.335 13.465 2.375 13.125 C2.705 12.135 3.035 11.145 3.375 10.125 C2.446875 10.021875 1.51875 9.91875 0.5625 9.8125 C-2.625 9.125 -2.625 9.125 -4.5625 7.8125 C-5.625 6.125 -5.625 6.125 -5.4375 4.0625 C-4.16555542 1.0294014 -3.32422542 0.15829645 0 0 Z " fill="#2C2C2C" transform="translate(99.625,355.875)"/>
<path d="M0 0 C2.97 0 5.94 0 9 0 C9 0.33 9 0.66 9 1 C6.69 1 4.38 1 2 1 C2 2.65 2 4.3 2 6 C4.31 6 6.62 6 9 6 C9 6.66 9 7.32 9 8 C6.69 8 4.38 8 2 8 C2 9.65 2 11.3 2 13 C4.31 13 6.62 13 9 13 C9 13.66 9 14.32 9 15 C6.03 15 3.06 15 0 15 C0 10.05 0 5.1 0 0 Z " fill="#2C2C2C" transform="translate(239,357)"/>
<path d="M0 0 C0.66 0 1.32 0 2 0 C1.71515154 1.73030291 1.42180062 3.45920714 1.125 5.1875 C0.96257812 6.15042969 0.80015625 7.11335938 0.6328125 8.10546875 C0.01960483 10.91032604 -0.85666343 13.37224747 -2 16 C-2.66 16 -3.32 16 -4 16 C-4.99 12.7 -5.98 9.4 -7 6 C-6.34 5.34 -5.68 4.68 -5 4 C-4.34 5.98 -3.68 7.96 -3 10 C-2.01 6.7 -1.02 3.4 0 0 Z " fill="#282828" transform="translate(189,356)"/>
<path d="M0 0 C2.97 0 5.94 0 9 0 C9 0.33 9 0.66 9 1 C6.69 1 4.38 1 2 1 C2 2.65 2 4.3 2 6 C3.98 6 5.96 6 8 6 C8 6.66 8 7.32 8 8 C5.69 8 3.38 8 1 8 C1 10.31 1 12.62 1 15 C0.67 15 0.34 15 0 15 C0 10.05 0 5.1 0 0 Z " fill="#1F1F1F" transform="translate(136,357)"/>
<path d="M0 0 C1.98 0 3.96 0 6 0 C6.38218767 1.65614657 6.71395102 3.32457024 7 5 C6 6 6 6 2.9375 6.0625 C1.4834375 6.0315625 1.4834375 6.0315625 0 6 C0 4.02 0 2.04 0 0 Z " fill="#E7E7E7" transform="translate(221,358)"/>
<path d="M0 0 C1.125 3.75 1.125 3.75 0 6 C-0.66 6 -1.32 6 -2 6 C-1.505 6.78375 -1.01 7.5675 -0.5 8.375 C1 11 1 11 1 13 C0.01 12.67 -0.98 12.34 -2 12 C-2.309375 11.34 -2.61875 10.68 -2.9375 10 C-3.82027141 7.79394438 -3.82027141 7.79394438 -6.125 7.25 C-6.74375 7.1675 -7.3625 7.085 -8 7 C-8 6.34 -8 5.68 -8 5 C-6.865625 4.731875 -5.73125 4.46375 -4.5625 4.1875 C-3.386875 3.795625 -2.21125 3.40375 -1 3 C-0.67 2.01 -0.34 1.02 0 0 Z " fill="#292929" transform="translate(229,359)"/>
<path d="M0 0 C1.65 0 3.3 0 5 0 C5.38218767 1.65614657 5.71395102 3.32457024 6 5 C5 6 5 6 2.4375 6.0625 C1.2309375 6.0315625 1.2309375 6.0315625 0 6 C0 4.02 0 2.04 0 0 Z " fill="#F4F4F4" transform="translate(403,358)"/>
<path d="M0 0 C1.8125 1.375 1.8125 1.375 3 3 C3 3.66 3 4.32 3 5 C2.34 5 1.68 5 1 5 C1 4.34 1 3.68 1 3 C-1.91634129 2.7497843 -1.91634129 2.7497843 -5 3 C-6.9451 5.91765 -7.45276317 7.62537285 -8 11 C-8.33 11 -8.66 11 -9 11 C-9.48461538 4.7 -9.48461538 4.7 -7.3125 1.5625 C-4.54994945 -0.30408821 -3.26764255 -0.58649994 0 0 Z " fill="#262626" transform="translate(318,356)"/>
<path d="M0 0 C0.66 0 1.32 0 2 0 C2.66 2.97 3.32 5.94 4 9 C2.02 9 0.04 9 -2 9 C-1.34 6.03 -0.68 3.06 0 0 Z " fill="#C5C5C5" transform="translate(326,324)"/>
<path d="M0 0 C0.66 0.33 1.32 0.66 2 1 C2.59355614 3.64860427 2.74209269 6.29197322 3 9 C1.35 9 -0.3 9 -2 9 C-1.34 6.03 -0.68 3.06 0 0 Z " fill="#CFCFCF" transform="translate(173,324)"/>
<path d="M0 0 C0.99 0 1.98 0 3 0 C5.09230769 4.43076923 5.09230769 4.43076923 4.625 7.3125 C4.41875 7.869375 4.2125 8.42625 4 9 C3.34 7.35 2.68 5.7 2 4 C1.01 4.66 0.02 5.32 -1 6 C-0.67 4.02 -0.34 2.04 0 0 Z M-2 9 C-0.02 9 1.96 9 4 9 C4 9.33 4 9.66 4 10 C2.02 10 0.04 10 -2 10 C-2 9.67 -2 9.34 -2 9 Z " fill="#171717" transform="translate(203,357)"/>
<path d="M0 0 C2.97 0 5.94 0 9 0 C9 0.66 9 1.32 9 2 C6.69 2 4.38 2 2 2 C2 3.98 2 5.96 2 8 C1.34 8 0.68 8 0 8 C0 5.36 0 2.72 0 0 Z " fill="#313131" transform="translate(364,356)"/>
<path d="M0 0 C2.97 0 5.94 0 9 0 C9 0.66 9 1.32 9 2 C6.69 2 4.38 2 2 2 C2 3.98 2 5.96 2 8 C1.34 8 0.68 8 0 8 C0 5.36 0 2.72 0 0 Z " fill="#313131" transform="translate(269,356)"/>
<path d="M0 0 C2.875 1 2.875 1 4.25 3.0625 C4.45625 3.701875 4.6625 4.34125 4.875 5 C4.318125 4.649375 3.76125 4.29875 3.1875 3.9375 C0.30302833 2.76811959 -1.15669666 3.23889658 -4.125 4 C-5.115 4 -6.105 4 -7.125 4 C-4.7645388 1.00403002 -3.91304326 0 0 0 Z " fill="#323232" transform="translate(121.125,356)"/>
<path d="M0 0 C0.66 0 1.32 0 2 0 C1.34 3.63 0.68 7.26 0 11 C-0.66 10.34 -1.32 9.68 -2 9 C-1.7578125 6.8359375 -1.7578125 6.8359375 -1.125 4.375 C-0.92132813 3.55773437 -0.71765625 2.74046875 -0.5078125 1.8984375 C-0.34023437 1.27195312 -0.17265625 0.64546875 0 0 Z " fill="#454545" transform="translate(189,356)"/>
<path d="M0 0 C0.66 0.33 1.32 0.66 2 1 C2.625 3.5625 2.625 3.5625 3 6 C1.35 6 -0.3 6 -2 6 C-1.34 4.02 -0.68 2.04 0 0 Z " fill="#D9D9D9" transform="translate(204,360)"/>
<path d="M0 0 C0.33 0 0.66 0 1 0 C1 4.95 1 9.9 1 15 C0.01 14.67 -0.98 14.34 -2 14 C-2 13.34 -2 12.68 -2 12 C-1.34 12 -0.68 12 0 12 C0 8.04 0 4.08 0 0 Z " fill="#050505" transform="translate(353,357)"/>
</svg>
